<mxfile host="app.diagrams.net" modified="2021-08-06T02:57:26.838Z" agent="5.0 (Windows NT 10.0; WOW64) AppleWebKit/537.36 (KHTML, like Gecko) Chrome/69.0.3497.100 Safari/537.36" etag="CJT1k6LDkXQdmDz06VCW" version="14.9.4" type="github">
  <diagram id="AVngD0tcw0efGsFr7O5R" name="Page-1">
    <mxGraphModel dx="1422" dy="702" grid="1" gridSize="10" guides="1" tooltips="1" connect="1" arrows="1" fold="1" page="1" pageScale="1" pageWidth="827" pageHeight="1169" math="0" shadow="0">
      <root>
        <mxCell id="0" />
        <mxCell id="1" parent="0" />
        <mxCell id="FLVjzXz2_E-ynMVPb_XI-14" value="" style="group" vertex="1" connectable="0" parent="1">
          <mxGeometry x="90" y="620" width="670" height="260" as="geometry" />
        </mxCell>
        <mxCell id="FLVjzXz2_E-ynMVPb_XI-11" value="" style="group" vertex="1" connectable="0" parent="FLVjzXz2_E-ynMVPb_XI-14">
          <mxGeometry y="70" width="670" height="190" as="geometry" />
        </mxCell>
        <mxCell id="Na_N96Jh_YFap5u9xBzC-9" value="" style="rounded=0;whiteSpace=wrap;html=1;strokeWidth=3;" parent="FLVjzXz2_E-ynMVPb_XI-11" vertex="1">
          <mxGeometry width="670" height="150" as="geometry" />
        </mxCell>
        <mxCell id="FLVjzXz2_E-ynMVPb_XI-6" value="" style="group" vertex="1" connectable="0" parent="FLVjzXz2_E-ynMVPb_XI-11">
          <mxGeometry x="15" y="10" width="640" height="180" as="geometry" />
        </mxCell>
        <mxCell id="Na_N96Jh_YFap5u9xBzC-3" value="&lt;font style=&quot;font-size: 24px&quot;&gt;pic1&amp;nbsp; &amp;nbsp;pic2&amp;nbsp; &amp;nbsp;pic3 ...&amp;nbsp; picN&lt;/font&gt;" style="rounded=0;whiteSpace=wrap;html=1;strokeWidth=3;" parent="FLVjzXz2_E-ynMVPb_XI-6" vertex="1">
          <mxGeometry y="40" width="320" height="70" as="geometry" />
        </mxCell>
        <mxCell id="Na_N96Jh_YFap5u9xBzC-4" value="&lt;span style=&quot;font-size: 24px&quot;&gt;UserPic&lt;/span&gt;" style="text;html=1;strokeColor=none;fillColor=none;align=center;verticalAlign=middle;whiteSpace=wrap;rounded=0;" parent="FLVjzXz2_E-ynMVPb_XI-6" vertex="1">
          <mxGeometry x="105" width="110" height="30" as="geometry" />
        </mxCell>
        <mxCell id="FLVjzXz2_E-ynMVPb_XI-8" value="" style="group" vertex="1" connectable="0" parent="FLVjzXz2_E-ynMVPb_XI-6">
          <mxGeometry x="350" y="5" width="260" height="105" as="geometry" />
        </mxCell>
        <mxCell id="FLVjzXz2_E-ynMVPb_XI-9" value="&lt;font style=&quot;font-size: 24px&quot;&gt;ext1&amp;nbsp; &amp;nbsp;ext2&amp;nbsp; ....extN&lt;/font&gt;" style="rounded=0;whiteSpace=wrap;html=1;strokeWidth=3;" vertex="1" parent="FLVjzXz2_E-ynMVPb_XI-8">
          <mxGeometry y="35" width="260" height="70" as="geometry" />
        </mxCell>
        <mxCell id="FLVjzXz2_E-ynMVPb_XI-10" value="&lt;span style=&quot;font-size: 24px&quot;&gt;extPic&lt;/span&gt;" style="text;html=1;strokeColor=none;fillColor=none;align=center;verticalAlign=middle;whiteSpace=wrap;rounded=0;" vertex="1" parent="FLVjzXz2_E-ynMVPb_XI-8">
          <mxGeometry x="70" width="120" height="20" as="geometry" />
        </mxCell>
        <mxCell id="FLVjzXz2_E-ynMVPb_XI-13" value="PhotoManager" style="text;html=1;strokeColor=none;fillColor=none;align=center;verticalAlign=middle;whiteSpace=wrap;rounded=0;fontSize=30;" vertex="1" parent="FLVjzXz2_E-ynMVPb_XI-14">
          <mxGeometry x="181" width="250" height="80" as="geometry" />
        </mxCell>
        <mxCell id="FLVjzXz2_E-ynMVPb_XI-96" value="" style="group" vertex="1" connectable="0" parent="1">
          <mxGeometry x="79" y="150" width="670" height="320" as="geometry" />
        </mxCell>
        <mxCell id="FLVjzXz2_E-ynMVPb_XI-77" value="" style="group;container=1;" vertex="1" connectable="0" parent="FLVjzXz2_E-ynMVPb_XI-96">
          <mxGeometry y="70" width="670" height="250" as="geometry" />
        </mxCell>
        <mxCell id="FLVjzXz2_E-ynMVPb_XI-47" value="" style="rounded=0;whiteSpace=wrap;html=1;strokeWidth=3;" vertex="1" parent="FLVjzXz2_E-ynMVPb_XI-77">
          <mxGeometry width="670" height="250" as="geometry" />
        </mxCell>
        <mxCell id="FLVjzXz2_E-ynMVPb_XI-63" value="" style="group" vertex="1" connectable="0" parent="FLVjzXz2_E-ynMVPb_XI-77">
          <mxGeometry x="70" y="30" width="510" height="190" as="geometry" />
        </mxCell>
        <mxCell id="FLVjzXz2_E-ynMVPb_XI-64" value="" style="group" vertex="1" connectable="0" parent="FLVjzXz2_E-ynMVPb_XI-63">
          <mxGeometry width="510" height="190" as="geometry" />
        </mxCell>
        <mxCell id="FLVjzXz2_E-ynMVPb_XI-65" value="" style="group" vertex="1" connectable="0" parent="FLVjzXz2_E-ynMVPb_XI-64">
          <mxGeometry width="510" height="60" as="geometry" />
        </mxCell>
        <mxCell id="FLVjzXz2_E-ynMVPb_XI-66" value="&lt;font style=&quot;font-size: 24px&quot;&gt;Segment1&lt;/font&gt;" style="rounded=0;whiteSpace=wrap;html=1;" vertex="1" parent="FLVjzXz2_E-ynMVPb_XI-65">
          <mxGeometry width="120" height="60" as="geometry" />
        </mxCell>
        <mxCell id="FLVjzXz2_E-ynMVPb_XI-67" value="&lt;font style=&quot;font-size: 24px&quot;&gt;Segment1&lt;/font&gt;" style="rounded=0;whiteSpace=wrap;html=1;" vertex="1" parent="FLVjzXz2_E-ynMVPb_XI-65">
          <mxGeometry x="160" width="120" height="60" as="geometry" />
        </mxCell>
        <mxCell id="FLVjzXz2_E-ynMVPb_XI-68" value="&lt;font style=&quot;font-size: 24px&quot;&gt;SegmentN&lt;/font&gt;" style="rounded=0;whiteSpace=wrap;html=1;" vertex="1" parent="FLVjzXz2_E-ynMVPb_XI-65">
          <mxGeometry x="380" width="130" height="60" as="geometry" />
        </mxCell>
        <mxCell id="FLVjzXz2_E-ynMVPb_XI-69" value="" style="endArrow=none;dashed=1;html=1;dashPattern=1 3;strokeWidth=5;entryX=0;entryY=0.5;entryDx=0;entryDy=0;exitX=1;exitY=0.5;exitDx=0;exitDy=0;" edge="1" parent="FLVjzXz2_E-ynMVPb_XI-65" source="FLVjzXz2_E-ynMVPb_XI-67" target="FLVjzXz2_E-ynMVPb_XI-68">
          <mxGeometry width="50" height="50" relative="1" as="geometry">
            <mxPoint x="320" y="280" as="sourcePoint" />
            <mxPoint x="370" y="230" as="targetPoint" />
          </mxGeometry>
        </mxCell>
        <mxCell id="FLVjzXz2_E-ynMVPb_XI-70" value="" style="endArrow=classic;html=1;strokeWidth=3;exitX=0.5;exitY=0;exitDx=0;exitDy=0;entryX=0.5;entryY=1;entryDx=0;entryDy=0;startArrow=none;" edge="1" parent="FLVjzXz2_E-ynMVPb_XI-64" source="FLVjzXz2_E-ynMVPb_XI-75" target="FLVjzXz2_E-ynMVPb_XI-66">
          <mxGeometry width="50" height="50" relative="1" as="geometry">
            <mxPoint x="20" y="110" as="sourcePoint" />
            <mxPoint x="70" y="60" as="targetPoint" />
          </mxGeometry>
        </mxCell>
        <mxCell id="FLVjzXz2_E-ynMVPb_XI-71" value="" style="endArrow=classic;html=1;strokeWidth=3;entryX=0.5;entryY=1;entryDx=0;entryDy=0;" edge="1" parent="FLVjzXz2_E-ynMVPb_XI-64" target="FLVjzXz2_E-ynMVPb_XI-67">
          <mxGeometry width="50" height="50" relative="1" as="geometry">
            <mxPoint x="220" y="130" as="sourcePoint" />
            <mxPoint x="310" y="220" as="targetPoint" />
          </mxGeometry>
        </mxCell>
        <mxCell id="FLVjzXz2_E-ynMVPb_XI-72" value="&lt;font style=&quot;font-size: 24px&quot;&gt;Filter2&lt;/font&gt;" style="rounded=0;whiteSpace=wrap;html=1;" vertex="1" parent="FLVjzXz2_E-ynMVPb_XI-64">
          <mxGeometry x="164" y="130" width="120" height="60" as="geometry" />
        </mxCell>
        <mxCell id="FLVjzXz2_E-ynMVPb_XI-73" value="" style="endArrow=none;dashed=1;html=1;dashPattern=1 3;strokeWidth=5;entryX=0;entryY=0.5;entryDx=0;entryDy=0;exitX=1;exitY=0.5;exitDx=0;exitDy=0;" edge="1" parent="FLVjzXz2_E-ynMVPb_XI-64" source="FLVjzXz2_E-ynMVPb_XI-72" target="FLVjzXz2_E-ynMVPb_XI-74">
          <mxGeometry width="50" height="50" relative="1" as="geometry">
            <mxPoint x="130" y="-130" as="sourcePoint" />
            <mxPoint x="180" y="-180" as="targetPoint" />
          </mxGeometry>
        </mxCell>
        <mxCell id="FLVjzXz2_E-ynMVPb_XI-74" value="&lt;font style=&quot;font-size: 24px&quot;&gt;FilterN&lt;/font&gt;" style="rounded=0;whiteSpace=wrap;html=1;" vertex="1" parent="FLVjzXz2_E-ynMVPb_XI-64">
          <mxGeometry x="390" y="130" width="120" height="60" as="geometry" />
        </mxCell>
        <mxCell id="FLVjzXz2_E-ynMVPb_XI-75" value="&lt;font style=&quot;font-size: 24px&quot;&gt;Filter1&lt;/font&gt;" style="rounded=0;whiteSpace=wrap;html=1;" vertex="1" parent="FLVjzXz2_E-ynMVPb_XI-64">
          <mxGeometry y="130" width="120" height="60" as="geometry" />
        </mxCell>
        <mxCell id="FLVjzXz2_E-ynMVPb_XI-76" value="" style="endArrow=classic;html=1;strokeWidth=3;entryX=0.5;entryY=1;entryDx=0;entryDy=0;" edge="1" parent="FLVjzXz2_E-ynMVPb_XI-63" target="FLVjzXz2_E-ynMVPb_XI-68">
          <mxGeometry width="50" height="50" relative="1" as="geometry">
            <mxPoint x="445" y="140" as="sourcePoint" />
            <mxPoint x="320" y="180" as="targetPoint" />
          </mxGeometry>
        </mxCell>
        <mxCell id="FLVjzXz2_E-ynMVPb_XI-78" value="&lt;span style=&quot;font-size: 30px&quot;&gt;MovieController&lt;/span&gt;" style="text;html=1;strokeColor=none;fillColor=none;align=center;verticalAlign=middle;whiteSpace=wrap;rounded=0;" vertex="1" parent="FLVjzXz2_E-ynMVPb_XI-96">
          <mxGeometry x="171" width="260" height="60" as="geometry" />
        </mxCell>
      </root>
    </mxGraphModel>
  </diagram>
</mxfile>
